<svg width="178" height="98" viewBox="0 0 178 98" fill="none" xmlns="http://www.w3.org/2000/svg">
<g clip-path="url(#clip0_2091_3759)">
<path d="M17.7957 39.645C19.3724 47.4163 35.5909 52.8225 40.8844 39.3071C37.7308 43.587 27.9322 50.0068 17.7957 39.645Z" fill="white"/>
<path d="M73.5705 29.5086L72.704 27.4119H68.1608L67.2942 29.5086H64.9736L69.335 19.7235H71.5716L75.947 29.5086H73.5705ZM68.8877 25.6925H71.991L70.4395 21.9461L68.8877 25.6925ZM81.5085 29.6764C78.475 29.6764 76.2105 27.5655 76.2105 24.616C76.2105 21.6665 78.475 19.5558 81.5225 19.5558C83.214 19.5558 84.6256 20.1708 85.5483 21.2891L84.0945 22.631C83.4376 21.8762 82.6127 21.4848 81.6342 21.4848C79.8031 21.4848 78.5032 22.7709 78.5032 24.616C78.5032 26.4613 79.8031 27.7473 81.6342 27.7473C82.6127 27.7473 83.4376 27.3558 84.0945 26.587L85.5483 27.9291C84.6256 29.0612 83.214 29.6764 81.5085 29.6764ZM91.5556 29.6764C88.5223 29.6764 86.2576 27.5655 86.2576 24.616C86.2576 21.6665 88.5223 19.5558 91.5696 19.5558C93.261 19.5558 94.673 20.1708 95.5954 21.2891L94.1416 22.631C93.4847 21.8762 92.6598 21.4848 91.6813 21.4848C89.8502 21.4848 88.5503 22.7709 88.5503 24.616C88.5503 26.4613 89.8502 27.7473 91.6813 27.7473C92.6598 27.7473 93.4847 27.3558 94.1416 26.587L95.5954 27.9291C94.673 29.0612 93.2611 29.6764 91.5556 29.6764ZM105.791 29.5086H103.359L101.472 26.7827H101.36H99.3891V29.5086H97.1246V19.7235H101.36C103.974 19.7235 105.61 21.0795 105.61 23.2742C105.61 24.7419 104.869 25.8182 103.597 26.3633L105.791 29.5086ZM103.317 23.2742C103.317 22.1977 102.618 21.5687 101.234 21.5687H99.3891V24.9796H101.234C102.618 24.9796 103.317 24.3365 103.317 23.2742ZM109.655 27.6914H114.98V29.5086H107.404V19.7235H114.799V21.5407H109.655V23.6654H114.197V25.4267H109.655V27.6914ZM116.782 29.5086V19.7235H121.227C124.428 19.7235 126.623 21.6526 126.623 24.616C126.623 27.5795 124.428 29.5086 121.227 29.5086H116.782ZM119.047 27.6493H121.116C123.059 27.6493 124.331 26.4892 124.331 24.616C124.331 22.743 123.059 21.5827 121.116 21.5827H119.047V27.6493ZM128.331 29.5086V19.7235H130.595V29.5086H128.331ZM134.944 29.5086V21.5687H131.813V19.7235H140.34V21.5687H137.209V29.5086H134.944ZM143.809 27.6914H149.135V29.5086H141.559V19.7235H148.953V21.5407H143.809V23.6654H148.352V25.4267H143.809V27.6914ZM150.937 29.5086V19.7235H155.382C158.583 19.7235 160.778 21.6526 160.778 24.616C160.778 27.5795 158.583 29.5086 155.382 29.5086H150.937ZM153.201 27.6493H155.27C157.213 27.6493 158.485 26.4892 158.485 24.616C158.485 22.743 157.213 21.5827 155.27 21.5827H153.201V27.6493ZM73.4448 41.5397C74.5351 41.8893 75.234 42.7279 75.234 43.9581C75.234 45.6495 73.8922 46.628 71.32 46.628H66.2598V36.8429H71.0404C73.4867 36.8429 74.7448 37.8635 74.7448 39.3872C74.7448 40.3657 74.2416 41.1205 73.4448 41.5397ZM70.7609 38.5483H68.5104V40.8549H70.7609C71.8651 40.8549 72.4663 40.4634 72.4663 39.6946C72.4663 38.9258 71.8651 38.5483 70.7609 38.5483ZM71.1524 44.9226C72.3264 44.9226 72.9556 44.5593 72.9556 43.7204C72.9556 42.8958 72.3264 42.5043 71.1524 42.5043H68.5104V44.9226H71.1524ZM81.2959 46.7958C78.5142 46.7958 76.8647 45.2021 76.8647 42.3227V36.8429H79.1292V42.2387C79.1292 44.0979 79.9399 44.8667 81.3099 44.8667C82.6936 44.8667 83.4906 44.0979 83.4906 42.2387V36.8429H85.7271V42.3227C85.7271 45.2021 84.0776 46.7958 81.2959 46.7958ZM91.1799 46.7958C89.6283 46.7958 88.0628 46.3345 87.196 45.6635L87.9648 43.9581C88.7895 44.5593 90.0196 44.9785 91.1939 44.9785C92.5359 44.9785 93.0811 44.5313 93.0811 43.9301C93.0811 42.099 87.3918 43.3571 87.3918 39.7226C87.3918 38.0591 88.7336 36.6753 91.5153 36.6753C92.7454 36.6753 94.0037 36.9688 94.9122 37.5419L94.2132 39.2612C93.3048 38.7441 92.3681 38.4924 91.5014 38.4924C90.1595 38.4924 89.6423 38.9957 89.6423 39.6108C89.6423 41.414 95.3316 40.1699 95.3316 43.7623C95.3316 45.3979 93.9756 46.7958 91.1799 46.7958ZM96.8789 46.628V36.8429H99.1436V46.628H96.8789ZM108.203 36.8429H110.44V46.628H108.581L103.702 40.6871V46.628H101.466V36.8429H103.339L108.203 42.7838V36.8429ZM115.006 44.8109H120.331V46.628H112.755V36.8429H120.15V38.6603H115.006V40.7849H119.549V42.5462H115.006V44.8109ZM125.348 46.7958C123.797 46.7958 122.231 46.3345 121.364 45.6635L122.133 43.9581C122.958 44.5593 124.188 44.9785 125.362 44.9785C126.704 44.9785 127.249 44.5313 127.249 43.9301C127.249 42.099 121.56 43.3571 121.56 39.7226C121.56 38.0591 122.902 36.6753 125.684 36.6753C126.914 36.6753 128.172 36.9688 129.081 37.5419L128.382 39.2612C127.473 38.7441 126.537 38.4924 125.67 38.4924C124.328 38.4924 123.811 38.9957 123.811 39.6108C123.811 41.414 129.5 40.1699 129.5 43.7623C129.5 45.3979 128.144 46.7958 125.348 46.7958ZM134.263 46.7958C132.711 46.7958 131.145 46.3345 130.278 45.6635L131.047 43.9581C131.872 44.5593 133.102 44.9785 134.277 44.9785C135.618 44.9785 136.164 44.5313 136.164 43.9301C136.164 42.099 130.474 43.3571 130.474 39.7226C130.474 38.0591 131.816 36.6753 134.598 36.6753C135.828 36.6753 137.086 36.9688 137.995 37.5419L137.296 39.2612C136.387 38.7441 135.451 38.4924 134.584 38.4924C133.242 38.4924 132.725 38.9957 132.725 39.6108C132.725 41.414 138.414 40.1699 138.414 43.7623C138.414 45.3979 137.058 46.7958 134.263 46.7958ZM151.231 46.628L150.364 44.5313H145.821L144.955 46.628H142.634L146.996 36.8429H149.232L153.608 46.628H151.231ZM146.548 42.812H149.652L148.1 39.0655L146.548 42.812ZM160.655 40.8829V42.5883H158.223V44.9645H156.42V42.5883H154.002V40.8829H156.42V38.5064H158.223V40.8829H160.655Z" fill="white"/>
<path d="M172.321 0.56311H4.95609C2.53018 0.56311 0.563599 2.5297 0.563599 4.9556V61.0443C0.563599 63.4702 2.53018 65.4368 4.95609 65.4368H172.321C174.747 65.4368 176.714 63.4702 176.714 61.0443V4.9556C176.714 2.5297 174.747 0.56311 172.321 0.56311Z" stroke="white" stroke-width="1.12628"/>
<path fill-rule="evenodd" clip-rule="evenodd" d="M29.3963 42.1228C35.6787 42.1228 40.7717 36.8282 40.7717 30.2969C40.7717 23.7656 35.6787 18.4709 29.3963 18.4709C23.1139 18.4709 18.0209 23.7656 18.0209 30.2969C18.0209 36.8282 23.1139 42.1228 29.3963 42.1228ZM32.6479 41.2939C35.0563 40.5591 35.5097 35.0496 33.6606 28.9875C31.8117 22.9256 28.3603 18.607 25.9517 19.3417C23.5432 20.0764 23.0898 25.5861 24.9389 31.648C26.7881 37.7098 30.2394 42.0284 32.6479 41.2939Z" fill="white"/>
<path d="M55.7513 64.8737V0" stroke="white" stroke-width="1.12628"/>
</g>
<path d="M3.728 91V81.432H0.272V79.8H9.056V81.432H5.6V91H3.728ZM14.5008 84.632C14.2128 84.504 13.8661 84.44 13.4608 84.44C12.8208 84.44 12.2874 84.7387 11.8608 85.336C11.4448 85.9227 11.2368 86.808 11.2368 87.992V91H9.49275V82.936H11.2368V84.472C11.4501 83.992 11.7914 83.5973 12.2608 83.288C12.7301 82.968 13.2101 82.808 13.7008 82.808C14.0528 82.808 14.3514 82.856 14.5968 82.952L14.5008 84.632ZM23.1016 82.936V91H21.3576V89.656C21.0803 90.104 20.7123 90.4613 20.2536 90.728C19.795 90.9947 19.283 91.128 18.7176 91.128C17.843 91.128 17.1336 90.8667 16.5896 90.344C16.0563 89.8107 15.7896 89.112 15.7896 88.248V82.936H17.5336V87.848C17.5336 88.36 17.683 88.776 17.9816 89.096C18.2803 89.4053 18.6856 89.56 19.1976 89.56C19.8696 89.56 20.3976 89.288 20.7816 88.744C21.1656 88.2 21.3576 87.4427 21.3576 86.472V82.936H23.1016ZM27.9486 91.128C27.042 91.128 26.29 90.8987 25.6926 90.44C25.106 89.9707 24.706 89.4107 24.4926 88.76L25.9326 88.152C26.2633 89.208 26.9353 89.736 27.9486 89.736C28.354 89.736 28.6846 89.6347 28.9406 89.432C29.2073 89.2293 29.3406 88.9787 29.3406 88.68C29.3406 88.36 29.186 88.1093 28.8766 87.928C28.5673 87.7467 28.1886 87.608 27.7406 87.512C27.3033 87.4053 26.866 87.2827 26.4286 87.144C25.9913 86.9947 25.618 86.744 25.3086 86.392C24.9993 86.04 24.8446 85.5813 24.8446 85.016C24.8446 84.376 25.1006 83.848 25.6126 83.432C26.1353 83.016 26.8286 82.808 27.6926 82.808C28.45 82.808 29.122 82.9947 29.7086 83.368C30.2953 83.7307 30.674 84.2053 30.8446 84.792L29.4046 85.4C29.3086 85.016 29.0953 84.712 28.7646 84.488C28.4446 84.264 28.0926 84.152 27.7086 84.152C27.3246 84.152 27.0206 84.2267 26.7966 84.376C26.5726 84.5147 26.4606 84.7173 26.4606 84.984C26.4606 85.2613 26.6153 85.48 26.9246 85.64C27.234 85.7893 27.6073 85.912 28.0446 86.008C28.4926 86.104 28.9406 86.2267 29.3886 86.376C29.8366 86.5253 30.2153 86.792 30.5246 87.176C30.834 87.56 30.9886 88.056 30.9886 88.664C30.9886 89.368 30.706 89.9547 30.1406 90.424C29.5753 90.8933 28.8446 91.128 27.9486 91.128ZM37.0219 90.936C36.6379 91.064 36.2112 91.128 35.7419 91.128C34.9419 91.128 34.2965 90.904 33.8059 90.456C33.3259 90.008 33.0859 89.3413 33.0859 88.456V84.424H31.6779V82.936H33.0859V80.536H34.8299V82.936H36.9099V84.424H34.8299V88.36C34.8299 88.7547 34.9259 89.0587 35.1179 89.272C35.3205 89.4747 35.5925 89.576 35.9339 89.576C36.3179 89.576 36.6432 89.512 36.9099 89.384L37.0219 90.936ZM45.7929 86.664C45.7929 86.952 45.7822 87.192 45.7609 87.384H39.6009C39.6755 88.0773 39.9209 88.6267 40.3369 89.032C40.7635 89.4373 41.2969 89.64 41.9369 89.64C42.4702 89.64 42.9129 89.5227 43.2649 89.288C43.6169 89.0427 43.8462 88.7013 43.9529 88.264L45.6009 88.68C45.3875 89.4587 44.9555 90.0613 44.3049 90.488C43.6542 90.9147 42.8542 91.128 41.9049 91.128C40.6782 91.128 39.7022 90.7227 38.9769 89.912C38.2515 89.0907 37.8889 88.1093 37.8889 86.968C37.8889 85.816 38.2355 84.8347 38.9289 84.024C39.6329 83.2133 40.5982 82.808 41.8249 82.808C43.0622 82.808 44.0329 83.1867 44.7369 83.944C45.4409 84.7013 45.7929 85.608 45.7929 86.664ZM39.6809 86.056H43.9369C43.8835 85.4907 43.6702 85.0373 43.2969 84.696C42.9342 84.3547 42.4435 84.184 41.8249 84.184C41.2702 84.184 40.8062 84.3493 40.4329 84.68C40.0595 85 39.8089 85.4587 39.6809 86.056ZM50.8386 91.128C49.6333 91.128 48.6893 90.7493 48.0066 89.992C47.324 89.224 46.9826 88.216 46.9826 86.968C46.9826 85.7307 47.3186 84.728 47.9906 83.96C48.6733 83.192 49.612 82.808 50.8066 82.808C51.3186 82.808 51.7933 82.9147 52.2306 83.128C52.6786 83.3307 53.0253 83.6027 53.2706 83.944V79.672H55.0146V91H53.2706V89.976C53.0786 90.3173 52.7586 90.5947 52.3106 90.808C51.8626 91.0213 51.372 91.128 50.8386 91.128ZM49.3666 88.888C49.7933 89.368 50.3586 89.608 51.0626 89.608C51.7666 89.608 52.332 89.368 52.7586 88.888C53.1853 88.3973 53.3986 87.7573 53.3986 86.968C53.3986 86.168 53.1853 85.528 52.7586 85.048C52.332 84.568 51.7666 84.328 51.0626 84.328C50.3586 84.328 49.7933 84.568 49.3666 85.048C48.94 85.528 48.7266 86.168 48.7266 86.968C48.7266 87.7573 48.94 88.3973 49.3666 88.888ZM60.9946 91V79.8H65.2506C66.3066 79.8 67.1493 80.056 67.7786 80.568C68.4186 81.0693 68.7386 81.7733 68.7386 82.68C68.7386 83.1707 68.6 83.6187 68.3226 84.024C68.0453 84.4187 67.7146 84.7013 67.3306 84.872C67.9173 85.0853 68.3866 85.432 68.7386 85.912C69.0906 86.3813 69.2666 86.9787 69.2666 87.704C69.2666 88.728 68.92 89.5333 68.2266 90.12C67.544 90.7067 66.616 91 65.4426 91H60.9946ZM62.8666 84.264H65.1386C66.344 84.264 66.9466 83.7787 66.9466 82.808C66.9466 81.8267 66.3386 81.336 65.1226 81.336H62.8666V84.264ZM62.8666 89.352H65.2186C66.7013 89.352 67.4426 88.776 67.4426 87.624C67.4426 86.4613 66.7013 85.88 65.2186 85.88H62.8666V89.352ZM78.1954 82.936V91H76.4514V89.656C76.174 90.104 75.806 90.4613 75.3474 90.728C74.8887 90.9947 74.3767 91.128 73.8114 91.128C72.9367 91.128 72.2274 90.8667 71.6834 90.344C71.15 89.8107 70.8834 89.112 70.8834 88.248V82.936H72.6274V87.848C72.6274 88.36 72.7767 88.776 73.0754 89.096C73.374 89.4053 73.7794 89.56 74.2914 89.56C74.9634 89.56 75.4914 89.288 75.8754 88.744C76.2594 88.2 76.4514 87.4427 76.4514 86.472V82.936H78.1954ZM83.0424 91.128C82.1357 91.128 81.3837 90.8987 80.7864 90.44C80.1997 89.9707 79.7997 89.4107 79.5864 88.76L81.0264 88.152C81.357 89.208 82.029 89.736 83.0424 89.736C83.4477 89.736 83.7784 89.6347 84.0344 89.432C84.301 89.2293 84.4344 88.9787 84.4344 88.68C84.4344 88.36 84.2797 88.1093 83.9704 87.928C83.661 87.7467 83.2824 87.608 82.8344 87.512C82.397 87.4053 81.9597 87.2827 81.5224 87.144C81.085 86.9947 80.7117 86.744 80.4024 86.392C80.093 86.04 79.9384 85.5813 79.9384 85.016C79.9384 84.376 80.1944 83.848 80.7064 83.432C81.229 83.016 81.9224 82.808 82.7864 82.808C83.5437 82.808 84.2157 82.9947 84.8024 83.368C85.389 83.7307 85.7677 84.2053 85.9384 84.792L84.4984 85.4C84.4024 85.016 84.189 84.712 83.8584 84.488C83.5384 84.264 83.1864 84.152 82.8024 84.152C82.4184 84.152 82.1144 84.2267 81.8904 84.376C81.6664 84.5147 81.5544 84.7173 81.5544 84.984C81.5544 85.2613 81.709 85.48 82.0184 85.64C82.3277 85.7893 82.701 85.912 83.1384 86.008C83.5864 86.104 84.0344 86.2267 84.4824 86.376C84.9304 86.5253 85.309 86.792 85.6184 87.176C85.9277 87.56 86.0824 88.056 86.0824 88.664C86.0824 89.368 85.7997 89.9547 85.2344 90.424C84.669 90.8933 83.9384 91.128 83.0424 91.128ZM88.513 81.592C88.193 81.592 87.9263 81.4853 87.713 81.272C87.4997 81.048 87.393 80.7813 87.393 80.472C87.393 80.152 87.4997 79.8853 87.713 79.672C87.9263 79.448 88.193 79.336 88.513 79.336C88.8437 79.336 89.1157 79.448 89.329 79.672C89.553 79.8853 89.665 80.152 89.665 80.472C89.665 80.7813 89.553 81.048 89.329 81.272C89.1157 81.4853 88.8437 81.592 88.513 81.592ZM87.649 91V82.936H89.393V91H87.649ZM91.4615 91V82.936H93.2055V84.28C93.8242 83.2987 94.7095 82.808 95.8615 82.808C96.7255 82.808 97.4242 83.0747 97.9575 83.608C98.5015 84.1307 98.7735 84.824 98.7735 85.688V91H97.0295V86.088C97.0295 85.576 96.8802 85.1653 96.5815 84.856C96.2828 84.536 95.8828 84.376 95.3815 84.376C94.6988 84.376 94.1655 84.648 93.7815 85.192C93.3975 85.736 93.2055 86.4933 93.2055 87.464V91H91.4615ZM108.293 86.664C108.293 86.952 108.282 87.192 108.261 87.384H102.101C102.176 88.0773 102.421 88.6267 102.837 89.032C103.264 89.4373 103.797 89.64 104.437 89.64C104.97 89.64 105.413 89.5227 105.765 89.288C106.117 89.0427 106.346 88.7013 106.453 88.264L108.101 88.68C107.888 89.4587 107.456 90.0613 106.805 90.488C106.154 90.9147 105.354 91.128 104.405 91.128C103.178 91.128 102.202 90.7227 101.477 89.912C100.752 89.0907 100.389 88.1093 100.389 86.968C100.389 85.816 100.736 84.8347 101.429 84.024C102.133 83.2133 103.098 82.808 104.325 82.808C105.562 82.808 106.533 83.1867 107.237 83.944C107.941 84.7013 108.293 85.608 108.293 86.664ZM102.181 86.056H106.437C106.384 85.4907 106.17 85.0373 105.797 84.696C105.434 84.3547 104.944 84.184 104.325 84.184C103.77 84.184 103.306 84.3493 102.933 84.68C102.56 85 102.309 85.4587 102.181 86.056ZM112.621 91.128C111.714 91.128 110.962 90.8987 110.365 90.44C109.778 89.9707 109.378 89.4107 109.165 88.76L110.605 88.152C110.935 89.208 111.607 89.736 112.621 89.736C113.026 89.736 113.357 89.6347 113.613 89.432C113.879 89.2293 114.013 88.9787 114.013 88.68C114.013 88.36 113.858 88.1093 113.549 87.928C113.239 87.7467 112.861 87.608 112.413 87.512C111.975 87.4053 111.538 87.2827 111.101 87.144C110.663 86.9947 110.29 86.744 109.981 86.392C109.671 86.04 109.517 85.5813 109.517 85.016C109.517 84.376 109.773 83.848 110.285 83.432C110.807 83.016 111.501 82.808 112.365 82.808C113.122 82.808 113.794 82.9947 114.381 83.368C114.967 83.7307 115.346 84.2053 115.517 84.792L114.077 85.4C113.981 85.016 113.767 84.712 113.437 84.488C113.117 84.264 112.765 84.152 112.381 84.152C111.997 84.152 111.693 84.2267 111.469 84.376C111.245 84.5147 111.133 84.7173 111.133 84.984C111.133 85.2613 111.287 85.48 111.597 85.64C111.906 85.7893 112.279 85.912 112.717 86.008C113.165 86.104 113.613 86.2267 114.061 86.376C114.509 86.5253 114.887 86.792 115.197 87.176C115.506 87.56 115.661 88.056 115.661 88.664C115.661 89.368 115.378 89.9547 114.813 90.424C114.247 90.8933 113.517 91.128 112.621 91.128ZM120.011 91.128C119.104 91.128 118.352 90.8987 117.755 90.44C117.168 89.9707 116.768 89.4107 116.555 88.76L117.995 88.152C118.326 89.208 118.998 89.736 120.011 89.736C120.416 89.736 120.747 89.6347 121.003 89.432C121.27 89.2293 121.403 88.9787 121.403 88.68C121.403 88.36 121.248 88.1093 120.939 87.928C120.63 87.7467 120.251 87.608 119.803 87.512C119.366 87.4053 118.928 87.2827 118.491 87.144C118.054 86.9947 117.68 86.744 117.371 86.392C117.062 86.04 116.907 85.5813 116.907 85.016C116.907 84.376 117.163 83.848 117.675 83.432C118.198 83.016 118.891 82.808 119.755 82.808C120.512 82.808 121.184 82.9947 121.771 83.368C122.358 83.7307 122.736 84.2053 122.907 84.792L121.467 85.4C121.371 85.016 121.158 84.712 120.827 84.488C120.507 84.264 120.155 84.152 119.771 84.152C119.387 84.152 119.083 84.2267 118.859 84.376C118.635 84.5147 118.523 84.7173 118.523 84.984C118.523 85.2613 118.678 85.48 118.987 85.64C119.296 85.7893 119.67 85.912 120.107 86.008C120.555 86.104 121.003 86.2267 121.451 86.376C121.899 86.5253 122.278 86.792 122.587 87.176C122.896 87.56 123.051 88.056 123.051 88.664C123.051 89.368 122.768 89.9547 122.203 90.424C121.638 90.8933 120.907 91.128 120.011 91.128Z" fill="white"/>
<defs>
<clipPath id="clip0_2091_3759">
<rect width="177.276" height="66" fill="white"/>
</clipPath>
</defs>
</svg>
