<svg width="85" height="72" viewBox="0 0 85 72" fill="none" xmlns="http://www.w3.org/2000/svg">
<g clip-path="url(#clip0_2091_3767)">
<path fill-rule="evenodd" clip-rule="evenodd" d="M42.2707 0C31.5207 0 22.7764 8.97106 22.7764 19.9998C22.7764 24.3737 24.1516 28.43 26.4895 31.7225L24.0598 39.1532L31.555 36.6963C34.6377 38.7892 38.3166 40 42.282 40C53.032 40 61.7764 31.0286 61.7764 20.0002C61.7764 8.97142 53.032 0.000330607 42.282 0.000330607L42.2707 0ZM36.8268 10.159C36.4487 9.23023 36.1621 9.19506 35.5893 9.17117C35.3943 9.15955 35.1769 9.14795 34.9359 9.14795C34.1907 9.14795 33.4116 9.37127 32.9416 9.86504C32.3688 10.4647 30.9475 11.8636 30.9475 14.7327C30.9475 17.6017 32.9875 20.3764 33.2624 20.7647C33.549 21.1523 37.2395 27.1253 42.9697 29.5596C47.4507 31.4643 48.7804 31.2878 49.8002 31.0644C51.29 30.7353 53.1582 29.606 53.6282 28.2425C54.0981 26.8784 54.0981 25.7143 53.9603 25.4674C53.8229 25.2205 53.4444 25.0798 52.8716 24.7855C52.2988 24.4915 49.5136 23.0806 48.9864 22.8924C48.4705 22.6926 47.9779 22.7633 47.5885 23.3278C47.0383 24.1155 46.4998 24.9153 46.0641 25.3971C45.7203 25.7734 45.1584 25.8205 44.6888 25.6204C44.0584 25.3503 42.2937 24.7148 40.1159 22.7278C38.4311 21.1878 37.2851 19.2715 36.953 18.6954C36.6205 18.1077 36.9186 17.7663 37.1819 17.449C37.4685 17.0844 37.7435 16.8259 38.03 16.4847C38.3166 16.1439 38.477 15.9674 38.6604 15.5676C38.8555 15.1796 38.7177 14.7798 38.5802 14.4858C38.4427 14.1918 37.2968 11.3228 36.8268 10.159Z" fill="#0DCF7D"/>
</g>
<path d="M5.62437 65.112C4.75637 65.112 3.96303 64.9347 3.24437 64.58C2.53503 64.216 1.9517 63.6467 1.49437 62.872C1.03703 62.0973 0.808367 61.1733 0.808367 60.1C0.808367 58.5133 1.27503 57.2813 2.20837 56.404C3.1417 55.5267 4.28037 55.088 5.62437 55.088C6.7537 55.088 7.70103 55.3773 8.46637 55.956C9.2317 56.5253 9.70303 57.3 9.88037 58.28L8.25637 58.63C8.11637 57.9767 7.81303 57.4633 7.34637 57.09C6.8797 56.7073 6.3057 56.516 5.62437 56.516C4.70037 56.516 3.94437 56.8333 3.35637 57.468C2.76837 58.0933 2.47437 58.9707 2.47437 60.1C2.47437 61.2293 2.7637 62.1067 3.34237 62.732C3.93037 63.3573 4.69103 63.67 5.62437 63.67C6.3057 63.67 6.87037 63.4973 7.31837 63.152C7.76637 62.8067 8.0697 62.3213 8.22837 61.696L9.86637 62.046C9.6237 62.998 9.12903 63.7493 8.38237 64.3C7.6357 64.8413 6.71637 65.112 5.62437 65.112ZM11.2896 65V55.088H12.8156V59.162C13.3102 58.2753 14.0802 57.832 15.1256 57.832C15.9282 57.832 16.5676 58.0653 17.0436 58.532C17.5289 58.9893 17.7716 59.6007 17.7716 60.366V65H16.2456V60.716C16.2456 60.2493 16.1056 59.8807 15.8256 59.61C15.5549 59.3393 15.1816 59.204 14.7056 59.204C14.1176 59.204 13.6556 59.4467 13.3196 59.932C12.9836 60.4173 12.8156 61.0893 12.8156 61.948V65H11.2896ZM22.249 57.832C23.1637 57.832 23.8964 58.0793 24.447 58.574C24.9977 59.0593 25.273 59.736 25.273 60.604V65H23.775V63.922C23.5697 64.2767 23.2664 64.566 22.865 64.79C22.4637 65.0047 22.0297 65.112 21.563 65.112C20.863 65.112 20.2937 64.916 19.855 64.524C19.4164 64.132 19.197 63.6327 19.197 63.026C19.197 61.682 20.2797 60.898 22.445 60.674L23.775 60.534V60.436C23.775 60.0067 23.635 59.666 23.355 59.414C23.0844 59.162 22.7157 59.036 22.249 59.036C21.8197 59.036 21.465 59.1573 21.185 59.4C20.905 59.6333 20.7417 59.96 20.695 60.38L19.323 60.128C19.435 59.4373 19.7617 58.882 20.303 58.462C20.8444 58.042 21.493 57.832 22.249 57.832ZM21.871 63.936C22.459 63.936 22.921 63.754 23.257 63.39C23.593 63.026 23.7657 62.55 23.775 61.962V61.668L22.431 61.822C21.2737 61.9527 20.695 62.34 20.695 62.984C20.695 63.264 20.8024 63.4927 21.017 63.67C21.2317 63.8473 21.5164 63.936 21.871 63.936ZM30.9752 64.944C30.6392 65.056 30.2659 65.112 29.8552 65.112C29.1552 65.112 28.5905 64.916 28.1612 64.524C27.7412 64.132 27.5312 63.5487 27.5312 62.774V59.246H26.2992V57.944H27.5312V55.844H29.0572V57.944H30.8772V59.246H29.0572V62.69C29.0572 63.0353 29.1412 63.3013 29.3092 63.488C29.4865 63.6653 29.7245 63.754 30.0232 63.754C30.3592 63.754 30.6439 63.698 30.8772 63.586L30.9752 64.944ZM37.2495 65L35.0655 57.944H36.6195L37.9495 62.872L39.4755 57.944H40.8895L42.4015 62.872L43.7315 57.944H45.2855L43.1155 65H41.7015L40.1755 60.086L38.6495 65H37.2495ZM47.278 56.768C46.998 56.768 46.7646 56.6747 46.578 56.488C46.3913 56.292 46.298 56.0587 46.298 55.788C46.298 55.508 46.3913 55.2747 46.578 55.088C46.7646 54.892 46.998 54.794 47.278 54.794C47.5673 54.794 47.8053 54.892 47.992 55.088C48.188 55.2747 48.286 55.508 48.286 55.788C48.286 56.0587 48.188 56.292 47.992 56.488C47.8053 56.6747 47.5673 56.768 47.278 56.768ZM46.522 65V57.944H48.048V65H46.522ZM53.8619 64.944C53.5259 65.056 53.1526 65.112 52.7419 65.112C52.0419 65.112 51.4772 64.916 51.0479 64.524C50.6279 64.132 50.4179 63.5487 50.4179 62.774V59.246H49.1859V57.944H50.4179V55.844H51.9439V57.944H53.7639V59.246H51.9439V62.69C51.9439 63.0353 52.0279 63.3013 52.1959 63.488C52.3732 63.6653 52.6112 63.754 52.9099 63.754C53.2459 63.754 53.5306 63.698 53.7639 63.586L53.8619 64.944ZM55.395 65V55.088H56.921V59.162C57.4157 58.2753 58.1857 57.832 59.231 57.832C60.0337 57.832 60.673 58.0653 61.149 58.532C61.6344 58.9893 61.877 59.6007 61.877 60.366V65H60.351V60.716C60.351 60.2493 60.211 59.8807 59.931 59.61C59.6604 59.3393 59.287 59.204 58.811 59.204C58.223 59.204 57.761 59.4467 57.425 59.932C57.089 60.4173 56.921 61.0893 56.921 61.948V65H55.395ZM70.9078 65.112C69.7505 65.112 68.8265 64.7993 68.1358 64.174C67.4451 63.5393 67.0998 62.6527 67.0998 61.514V55.2H68.6538V61.542C68.6538 62.214 68.8591 62.7367 69.2698 63.11C69.6805 63.4833 70.2265 63.67 70.9078 63.67C71.5891 63.67 72.1305 63.4833 72.5318 63.11C72.9425 62.7367 73.1478 62.214 73.1478 61.542V55.2H74.7018V61.514C74.7018 62.6527 74.3565 63.5393 73.6658 64.174C72.9751 64.7993 72.0558 65.112 70.9078 65.112ZM79.7657 65.112C78.8137 65.112 77.9831 64.8273 77.2737 64.258C76.5737 63.6887 76.1537 62.956 76.0137 62.06L77.5117 61.598C77.5957 62.2233 77.8524 62.7273 78.2817 63.11C78.7111 63.4927 79.2244 63.684 79.8217 63.684C80.4004 63.684 80.8624 63.558 81.2077 63.306C81.5624 63.054 81.7397 62.718 81.7397 62.298C81.7397 61.9433 81.6044 61.6447 81.3337 61.402C81.0724 61.1593 80.7411 60.982 80.3397 60.87C79.9477 60.7487 79.5184 60.6133 79.0517 60.464C78.5944 60.3053 78.1651 60.1373 77.7637 59.96C77.3717 59.7827 77.0404 59.5027 76.7697 59.12C76.5084 58.7373 76.3777 58.2707 76.3777 57.72C76.3777 56.9453 76.6951 56.3153 77.3297 55.83C77.9644 55.3353 78.7671 55.088 79.7377 55.088C80.6617 55.088 81.4504 55.312 82.1037 55.76C82.7571 56.208 83.1537 56.8007 83.2937 57.538L81.8237 58.14C81.7211 57.636 81.4831 57.2393 81.1097 56.95C80.7457 56.6607 80.2884 56.516 79.7377 56.516C79.2057 56.516 78.7857 56.6233 78.4777 56.838C78.1791 57.0527 78.0297 57.3467 78.0297 57.72C78.0297 58.028 78.1604 58.28 78.4217 58.476C78.6924 58.672 79.0237 58.8167 79.4157 58.91C79.8171 58.994 80.2511 59.1107 80.7177 59.26C81.1844 59.4093 81.6137 59.582 82.0057 59.778C82.4071 59.9647 82.7384 60.2727 82.9997 60.702C83.2704 61.1313 83.4057 61.654 83.4057 62.27C83.4057 63.1287 83.0744 63.8193 82.4117 64.342C81.7491 64.8553 80.8671 65.112 79.7657 65.112Z" fill="white"/>
<defs>
<clipPath id="clip0_2091_3767">
<rect x="22.7764" width="39" height="40" fill="white"/>
</clipPath>
</defs>
</svg>

